<svg xmlns="http://www.w3.org/2000/svg" width="1024" height="270" fill="none"><path fill="#fff" d="M329 100.3a58 58 0 0 1 22-22.1c9.6-5.3 20.5-8 31.4-7.9q20.4 0 35.6 10.4c10.2 7 17.8 17.1 21.4 28.9h-28a29 29 0 0 0-11.7-13q-8.2-4.6-17.5-4.3a33.7 33.7 0 0 0-31.7 19 51 51 0 0 0 0 42.2 33 33 0 0 0 12.9 14q8.7 5 18.8 5 9.4 0 17.5-4.5c5.2-3 9.3-7.7 11.7-13.1h28a54 54 0 0 1-21.3 28.9 62 62 0 0 1-35.7 10.3q-16.7.2-31.3-7.8a58 58 0 0 1-22-22 68 68 0 0 1 0-64zM555.4 71.5l-41 79.1v42.2h-24.3v-42.2l-41.2-79h27.5l26 55.4 26-55.5zM650.5 140.9a30 30 0 0 1 6.6 19.1c.2 6-1.5 12-4.7 17.1a32 32 0 0 1-13.9 11.6q-10.2 4.4-21.3 4.1h-52.3V71.5h50a52 52 0 0 1 21.3 4 29 29 0 0 1 18.2 27.3 27.6 27.6 0 0 1-20.7 27.8 27 27 0 0 1 16.8 10.3m-61.4-19.3h22.2q8.7 0 13.4-4 4.8-3.8 4.7-11.1a14 14 0 0 0-4.7-11.3 20 20 0 0 0-13.4-4h-22.2zm38.4 47.3q4.9-4.2 4.9-11.9a16 16 0 0 0-5.2-12.2q-5.2-4.5-14.1-4.4h-24V173h24.5a21 21 0 0 0 14-4.1zM698.2 185.4a60 60 0 0 1-22.6-22.2 66 66 0 0 1 0-64c5.4-9.2 13.2-17 22.6-22.1a65 65 0 0 1 62.6 0 59 59 0 0 1 22.4 22.2 66 66 0 0 1 0 63.9 59 59 0 0 1-22.5 22.2 65 65 0 0 1-62.5 0m50.5-18.7a34 34 0 0 0 13-14.2 51 51 0 0 0 0-42.6 34 34 0 0 0-13-14c-5.8-3.3-12.5-5-19.3-4.9a38 38 0 0 0-19.3 5 33 33 0 0 0-13.2 14q-4.8 10-4.7 21.2a46 46 0 0 0 4.7 21.4 34 34 0 0 0 13.2 14.2c5.8 3.3 12.5 5 19.3 4.9a37 37 0 0 0 19.3-5M864.2 192.8l-26.7-47.2H826v47.2h-24.4V71.5h45.5q14.1 0 24 5a34.5 34.5 0 0 1 19.7 33.9q-.5 10.9-6.9 20a36 36 0 0 1-20.7 13.2l29 49.2zM826 127.3h20.3q9.9 0 14.8-4.8t4.9-13.3a17 17 0 0 0-4.9-12.9q-4.9-4.5-14.8-4.6H826zM993 107.2q-3.9-7.6-11.4-11.6a35 35 0 0 0-17-4 37 37 0 0 0-19.1 4.8 34 34 0 0 0-13 14 49 49 0 0 0 0 42q4.6 8.8 13.3 13.8c6 3.4 12.9 5 19.8 5q14 0 22.8-7.5t11.6-20.6h-41.7v-18.5h65.7v21.2a58.7 58.7 0 0 1-31 40.7 60 60 0 0 1-28.2 6.5 64 64 0 0 1-31.8-8 58 58 0 0 1-22.2-22 68 68 0 0 1 0-64c5.2-9.2 13-16.9 22.2-22 9.7-5.3 20.6-8 31.6-8q20.4 0 35.6 10a51 51 0 0 1 20.8 28.1z"/><path fill="url(#a)" d="M134.6 58.3a77 77 0 0 0-68.7 43h54.5a36.6 36.6 0 0 1 48.1 20H210a76.6 76.6 0 0 0-75.2-63"/><path fill="url(#b)" d="M61.5 157.8a76.6 76.6 0 0 0 146.2 0H163a36.6 36.6 0 0 1-62.4-36.6H37.3a98.3 98.3 0 0 1 185-31h39.4A134.6 134.6 0 0 0 2 157.8z"/><path fill="url(#c)" d="M225.9 171.4A98.3 98.3 0 0 1 46.2 178H7a134.7 134.7 0 0 0 257.2-6.5z"/><defs><linearGradient id="a" x1="285.2" x2="64.3" y1="-7.1" y2="162.8" gradientUnits="userSpaceOnUse"><stop offset="0" stop-color="#89ecef"/><stop offset="1" stop-color="#35a8b1"/></linearGradient><linearGradient id="b" x1="280" x2="59.2" y1="-13.8" y2="156.2" gradientUnits="userSpaceOnUse"><stop offset="0" stop-color="#89ecef"/><stop offset="1" stop-color="#35a8b1"/></linearGradient><linearGradient id="c" x1="325.5" x2="104.6" y1="45.3" y2="215.3" gradientUnits="userSpaceOnUse"><stop offset="0" stop-color="#89ecef"/><stop offset="1" stop-color="#35a8b1"/></linearGradient></defs></svg>