<svg xmlns="http://www.w3.org/2000/svg" version="1.1" xmlns:xlink="http://www.w3.org/1999/xlink" width="1280" height="1280"><svg xmlns="http://www.w3.org/2000/svg" version="1.1" xmlns:xlink="http://www.w3.org/1999/xlink" width="1280" height="1280"><svg width="1280" height="1280" viewBox="0 0 1280 1280" fill="none" xmlns="http://www.w3.org/2000/svg">
<rect width="1280" height="1280" rx="120" fill="#3179C7"></rect>
<path d="M343.2 604.06H431.76V666.38L433.4 668.02C447.613 644.513 466.2 626.2 489.16 613.08C512.12 599.413 537.54 592.58 565.42 592.58C611.887 592.58 648.513 604.607 675.3 628.66C702.087 652.713 715.48 688.793 715.48 736.9V1028H622V761.5C620.907 728.153 613.8 704.1 600.68 689.34C587.56 674.033 567.06 666.38 539.18 666.38C523.327 666.38 509.113 669.387 496.54 675.4C483.967 680.867 473.307 688.793 464.56 699.18C455.813 709.02 448.98 720.773 444.06 734.44C439.14 748.107 436.68 762.593 436.68 777.9V1028H343.2V604.06ZM775.519 604.06H864.079V661.46H865.719C878.839 636.86 897.153 619.367 920.659 608.98C944.166 598.047 969.586 592.58 996.919 592.58C1030.27 592.58 1059.24 598.593 1083.84 610.62C1108.99 622.1 1129.76 638.227 1146.16 659C1162.56 679.227 1174.86 703.007 1183.06 730.34C1191.26 757.673 1195.36 786.92 1195.36 818.08C1195.36 846.507 1191.53 874.113 1183.88 900.9C1176.77 927.687 1165.57 951.467 1150.26 972.24C1135.5 992.467 1116.64 1008.87 1093.68 1021.44C1070.72 1033.47 1043.66 1039.48 1012.5 1039.48C998.833 1039.48 985.166 1038.11 971.499 1035.38C957.833 1033.19 944.713 1029.37 932.139 1023.9C919.566 1018.43 907.813 1011.6 896.879 1003.4C886.493 994.653 877.746 984.54 870.639 973.06H868.999V1184.62H775.519V604.06ZM1101.88 816.44C1101.88 797.307 1099.42 778.72 1094.5 760.68C1089.58 742.64 1082.2 726.787 1072.36 713.12C1062.52 698.907 1050.22 687.7 1035.46 679.5C1020.7 670.753 1003.75 666.38 984.619 666.38C945.259 666.38 915.466 680.047 895.239 707.38C875.559 734.713 865.719 771.067 865.719 816.44C865.719 837.76 868.179 857.713 873.099 876.3C878.566 894.34 886.493 909.92 896.879 923.04C907.266 936.16 919.566 946.547 933.779 954.2C948.539 961.853 965.486 965.68 984.619 965.68C1005.94 965.68 1023.98 961.307 1038.74 952.56C1053.5 943.813 1065.53 932.607 1074.82 918.94C1084.66 904.727 1091.49 888.873 1095.32 871.38C1099.69 853.34 1101.88 835.027 1101.88 816.44Z" fill="white"></path>
</svg></svg><style>@media (prefers-color-scheme: light) { :root { filter: none; } }
@media (prefers-color-scheme: dark) { :root { filter: none; } }
</style></svg>