<svg width="1200" height="600" viewBox="0 0 1200 600" fill="none" xmlns="http://www.w3.org/2000/svg"><path width="6000" height="3000" fill="#F8FAFD" d="M0 0H1200V600H0V0z"/><path x="616" y="860" width="1280" height="1280" rx="120" fill="#3179C7" d="M147.2 172H355.2A24 24 0 0 1 379.2 196V404A24 24 0 0 1 355.2 428H147.2A24 24 0 0 1 123.2 404V196A24 24 0 0 1 147.2 172z"/><path d="M191.84 292.812h17.712v12.464l0.328 0.328c2.842 -4.702 6.56 -8.364 11.152 -10.988 4.592 -2.734 9.676 -4.1 15.252 -4.1 9.294 0 16.618 2.406 21.976 7.216s8.036 12.026 8.036 21.648V377.6H247.6v-53.3c-0.218 -6.67 -1.64 -11.48 -4.264 -14.432 -2.624 -3.062 -6.724 -4.592 -12.3 -4.592 -3.17 0 -6.014 0.602 -8.528 1.804 -2.514 1.094 -4.646 2.678 -6.396 4.756 -1.75 1.968 -3.116 4.318 -4.1 7.052s-1.476 5.63 -1.476 8.692V377.6H191.84zm86.464 0h17.712v11.48h0.328c2.624 -4.92 6.286 -8.418 10.988 -10.496 4.702 -2.186 9.786 -3.28 15.252 -3.28 6.67 0 12.464 1.202 17.384 3.608 5.03 2.296 9.184 5.522 12.464 9.676q4.92 6.069 7.38 14.268c1.64 5.466 2.46 11.316 2.46 17.548 0 5.686 -0.766 11.206 -2.296 16.564 -1.422 5.358 -3.662 10.114 -6.724 14.268q-4.428 6.069 -11.316 9.84c-4.592 2.406 -10.004 3.608 -16.236 3.608 -2.734 0 -5.466 -0.274 -8.2 -0.82 -2.734 -0.438 -5.358 -1.202 -7.872 -2.296a34.94 34.94 0 0 1 -7.052 -4.1c-2.078 -1.75 -3.826 -3.772 -5.248 -6.068H297v42.312h-18.696zm65.272 42.476c0 -3.826 -0.492 -7.544 -1.476 -11.152s-2.46 -6.778 -4.428 -9.512c-1.968 -2.842 -4.428 -5.084 -7.38 -6.724 -2.952 -1.75 -6.342 -2.624 -10.168 -2.624 -7.872 0 -13.83 2.734 -17.876 8.2 -3.936 5.466 -5.904 12.738 -5.904 21.812 0 4.264 0.492 8.254 1.476 11.972 1.094 3.608 2.678 6.724 4.756 9.348s4.538 4.702 7.38 6.232c2.952 1.53 6.342 2.296 10.168 2.296 4.264 0 7.872 -0.874 10.824 -2.624s5.358 -3.99 7.216 -6.724c1.968 -2.842 3.334 -6.014 4.1 -9.512 0.874 -3.608 1.312 -7.27 1.312 -10.988" fill="white"/><path d="M424.24 292.812h17.712v12.464l0.328 0.328c2.842 -4.702 6.56 -8.364 11.152 -10.988 4.592 -2.734 9.676 -4.1 15.252 -4.1 9.294 0 16.618 2.406 21.976 7.216s8.036 12.026 8.036 21.648V377.6H480v-53.3c-0.218 -6.67 -1.64 -11.48 -4.264 -14.432 -2.624 -3.062 -6.724 -4.592 -12.3 -4.592 -3.17 0 -6.014 0.602 -8.528 1.804 -2.514 1.094 -4.646 2.678 -6.396 4.756 -1.75 1.968 -3.116 4.318 -4.1 7.052s-1.476 5.63 -1.476 8.692V377.6h-18.696zM584.668 377.6h-18.368v-11.808h-0.328q-3.444 6.396 -10.332 10.332c-4.482 2.514 -9.074 3.772 -13.776 3.772 -11.152 0 -19.242 -2.734 -24.272 -8.2q-7.38 -8.364 -7.38 -25.092v-53.792h18.696V344.8c0 7.434 1.422 12.682 4.264 15.744s6.834 4.592 11.972 4.592c3.936 0 7.216 -0.602 9.84 -1.804s4.756 -2.788 6.396 -4.756q2.46 -3.117 3.444 -7.38c0.766 -2.842 1.148 -5.904 1.148 -9.184v-49.2h18.696zm11.516 -84.788h17.712v11.808h0.492c1.422 -2.078 2.952 -3.99 4.592 -5.74q2.46 -2.625 5.412 -4.428c2.078 -1.202 4.428 -2.132 7.052 -2.788 2.624 -0.766 5.63 -1.148 9.02 -1.148q7.707 0 14.268 3.444c4.482 2.296 7.654 5.85 9.512 10.66 3.17 -4.374 6.834 -7.818 10.988 -10.332s9.348 -3.772 15.58 -3.772c8.966 0 15.908 2.186 20.828 6.56 5.03 4.374 7.544 11.698 7.544 21.976V377.6h-18.696v-49.528c0 -3.39 -0.11 -6.45 -0.328 -9.184 -0.218 -2.842 -0.874 -5.248 -1.968 -7.216 -0.984 -2.078 -2.514 -3.662 -4.592 -4.756s-4.92 -1.64 -8.528 -1.64q-9.513 0 -13.776 5.904c-2.842 3.936 -4.264 9.512 -4.264 16.728V377.6h-18.696v-54.448c0 -5.904 -1.094 -10.332 -3.28 -13.284 -2.078 -3.062 -5.958 -4.592 -11.644 -4.592 -2.406 0 -4.756 0.492 -7.052 1.476 -2.186 0.984 -4.154 2.406 -5.904 4.264 -1.64 1.858 -3.006 4.154 -4.1 6.888q-1.476 4.101 -1.476 9.348V377.6h-18.696zm134.99 0h17.712v11.48h0.328c2.624 -4.92 6.288 -8.418 10.988 -10.496 4.702 -2.186 9.786 -3.28 15.252 -3.28 6.67 0 12.464 1.202 17.384 3.608 5.03 2.296 9.184 5.522 12.464 9.676q4.92 6.069 7.38 14.268c1.64 5.466 2.46 11.316 2.46 17.548 0 5.686 -0.764 11.206 -2.296 16.564 -1.42 5.358 -3.662 10.114 -6.724 14.268q-4.428 6.069 -11.316 9.84c-4.592 2.406 -10.004 3.608 -16.236 3.608 -2.732 0 -5.466 -0.274 -8.2 -0.82 -2.732 -0.438 -5.356 -1.202 -7.872 -2.296a35 35 0 0 1 -7.052 -4.1c-2.076 -1.75 -3.826 -3.772 -5.248 -6.068h-0.328v42.312h-18.696zm65.272 42.476c0 -3.826 -0.492 -7.544 -1.476 -11.152s-2.46 -6.778 -4.428 -9.512c-1.968 -2.842 -4.428 -5.084 -7.38 -6.724 -2.952 -1.75 -6.34 -2.624 -10.168 -2.624 -7.872 0 -13.83 2.734 -17.876 8.2 -3.936 5.466 -5.904 12.738 -5.904 21.812 0 4.264 0.492 8.254 1.476 11.972 1.094 3.608 2.68 6.724 4.756 9.348 2.078 2.624 4.538 4.702 7.38 6.232 2.952 1.53 6.342 2.296 10.168 2.296 4.264 0 7.872 -0.874 10.824 -2.624s5.358 -3.99 7.216 -6.724c1.968 -2.842 3.336 -6.014 4.1 -9.512 0.876 -3.608 1.312 -7.27 1.312 -10.988m16.946 -42.476h20.5l22.14 63.304h0.328l21.484 -63.304h19.516l-32.964 89.38c-1.53 3.826 -3.06 7.49 -4.592 10.988 -1.42 3.498 -3.224 6.56 -5.412 9.184q-3.114 4.101 -7.872 6.396c-3.17 1.64 -7.216 2.46 -12.136 2.46 -4.372 0 -8.692 -0.328 -12.956 -0.984v-15.744c1.532 0.218 3.008 0.438 4.428 0.656q2.133 0.492 4.428 0.492c2.188 0 3.992 -0.274 5.412 -0.82q2.133 -0.819 3.444 -2.46c0.984 -0.984 1.804 -2.186 2.46 -3.608s1.258 -3.062 1.804 -4.92l2.132 -6.56zm84.388 31.324h47.724v17.712H897.78zm48.818 -31.324h14.104v-25.42h18.696v25.42h16.892v13.94h-16.892v45.264c0 1.968 0.054 3.662 0.164 5.084 0.218 1.422 0.602 2.624 1.148 3.608 0.656 0.984 1.586 1.75 2.788 2.296 1.202 0.438 2.842 0.656 4.92 0.656h3.936c1.312 -0.11 2.624 -0.328 3.936 -0.656v14.432c-2.078 0.218 -4.1 0.438 -6.068 0.656s-3.99 0.328 -6.068 0.328c-4.92 0 -8.91 -0.438 -11.972 -1.312 -2.952 -0.984 -5.302 -2.35 -7.052 -4.1q-2.46 -2.787 -3.444 -6.888 -0.819 -4.101 -0.984 -9.348v-50.02h-14.104zm69.046 57.564c0.546 5.466 2.624 9.294 6.232 11.48s7.926 3.28 12.956 3.28c1.748 0 3.716 -0.11 5.904 -0.328 2.296 -0.328 4.428 -0.874 6.396 -1.64s3.552 -1.858 4.756 -3.28c1.312 -1.53 1.912 -3.498 1.804 -5.904 -0.11 -2.406 -0.984 -4.374 -2.624 -5.904s-3.772 -2.734 -6.396 -3.608c-2.516 -0.984 -5.412 -1.804 -8.692 -2.46s-6.616 -1.366 -10.004 -2.132c-3.5 -0.766 -6.888 -1.694 -10.168 -2.788 -3.172 -1.094 -6.068 -2.57 -8.692 -4.428 -2.516 -1.858 -4.538 -4.21 -6.068 -7.052 -1.532 -2.952 -2.296 -6.56 -2.296 -10.824 0 -4.592 1.092 -8.418 3.28 -11.48 2.296 -3.17 5.138 -5.686 8.528 -7.544 3.498 -1.968 7.324 -3.334 11.48 -4.1 4.264 -0.766 8.308 -1.148 12.136 -1.148 4.372 0 8.528 0.492 12.464 1.476q6.066 1.311 10.824 4.428c3.28 2.078 5.958 4.81 8.036 8.2 2.186 3.28 3.552 7.27 4.1 11.972h-19.516c-0.876 -4.482 -2.952 -7.49 -6.232 -9.02 -3.172 -1.53 -6.834 -2.296 -10.988 -2.296 -1.312 0 -2.898 0.11 -4.756 0.328 -1.75 0.218 -3.444 0.656 -5.084 1.312 -1.532 0.546 -2.844 1.422 -3.936 2.624 -1.094 1.094 -1.64 2.57 -1.64 4.428 0 2.296 0.764 4.154 2.296 5.576 1.64 1.422 3.716 2.624 6.232 3.608 2.624 0.874 5.576 1.64 8.856 2.296s6.668 1.366 10.168 2.132c3.388 0.766 6.724 1.694 10.004 2.788s6.176 2.57 8.692 4.428c2.624 1.858 4.7 4.21 6.232 7.052 1.64 2.842 2.46 6.342 2.46 10.496q0 7.545 -3.444 12.792c-2.296 3.498 -5.304 6.342 -9.02 8.528 -3.608 2.186 -7.654 3.772 -12.136 4.756q-6.726 1.476 -13.284 1.476c-5.358 0 -10.332 -0.602 -14.924 -1.804q-6.726 -1.803 -11.808 -5.412c-3.28 -2.514 -5.904 -5.576 -7.872 -9.184 -1.86 -3.718 -2.844 -8.09 -2.952 -13.12z" fill="#121212"/></svg>