<svg width="4768" height="1280" viewBox="0 0 4768 1280" fill="none" xmlns="http://www.w3.org/2000/svg">
<rect width="1280" height="1280" rx="120" fill="#3179C7"/>
<path d="M343.2 604.06H431.76V666.38L433.4 668.02C447.613 644.513 466.2 626.2 489.16 613.08C512.12 599.413 537.54 592.58 565.42 592.58C611.887 592.58 648.513 604.607 675.3 628.66C702.087 652.713 715.48 688.793 715.48 736.9V1028H622V761.5C620.907 728.153 613.8 704.1 600.68 689.34C587.56 674.033 567.06 666.38 539.18 666.38C523.327 666.38 509.113 669.387 496.54 675.4C483.967 680.867 473.307 688.793 464.56 699.18C455.813 709.02 448.98 720.773 444.06 734.44C439.14 748.107 436.68 762.593 436.68 777.9V1028H343.2V604.06ZM775.519 604.06H864.079V661.46H865.719C878.839 636.86 897.153 619.367 920.659 608.98C944.166 598.047 969.586 592.58 996.919 592.58C1030.27 592.58 1059.24 598.593 1083.84 610.62C1108.99 622.1 1129.76 638.227 1146.16 659C1162.56 679.227 1174.86 703.007 1183.06 730.34C1191.26 757.673 1195.36 786.92 1195.36 818.08C1195.36 846.507 1191.53 874.113 1183.88 900.9C1176.77 927.687 1165.57 951.467 1150.26 972.24C1135.5 992.467 1116.64 1008.87 1093.68 1021.44C1070.72 1033.47 1043.66 1039.48 1012.5 1039.48C998.833 1039.48 985.166 1038.11 971.499 1035.38C957.833 1033.19 944.713 1029.37 932.139 1023.9C919.566 1018.43 907.813 1011.6 896.879 1003.4C886.493 994.653 877.746 984.54 870.639 973.06H868.999V1184.62H775.519V604.06ZM1101.88 816.44C1101.88 797.307 1099.42 778.72 1094.5 760.68C1089.58 742.64 1082.2 726.787 1072.36 713.12C1062.52 698.907 1050.22 687.7 1035.46 679.5C1020.7 670.753 1003.75 666.38 984.619 666.38C945.259 666.38 915.466 680.047 895.239 707.38C875.559 734.713 865.719 771.067 865.719 816.44C865.719 837.76 868.179 857.713 873.099 876.3C878.566 894.34 886.493 909.92 896.879 923.04C907.266 936.16 919.566 946.547 933.779 954.2C948.539 961.853 965.486 965.68 984.619 965.68C1005.94 965.68 1023.98 961.307 1038.74 952.56C1053.5 943.813 1065.53 932.607 1074.82 918.94C1084.66 904.727 1091.49 888.873 1095.32 871.38C1099.69 853.34 1101.88 835.027 1101.88 816.44Z" fill="white"/>
<path d="M1505.2 604.06H1593.76V666.38L1595.4 668.02C1609.61 644.513 1628.2 626.2 1651.16 613.08C1674.12 599.413 1699.54 592.58 1727.42 592.58C1773.89 592.58 1810.51 604.607 1837.3 628.66C1864.09 652.713 1877.48 688.793 1877.48 736.9V1028H1784V761.5C1782.91 728.153 1775.8 704.1 1762.68 689.34C1749.56 674.033 1729.06 666.38 1701.18 666.38C1685.33 666.38 1671.11 669.387 1658.54 675.4C1645.97 680.867 1635.31 688.793 1626.56 699.18C1617.81 709.02 1610.98 720.773 1606.06 734.44C1601.14 748.107 1598.68 762.593 1598.68 777.9V1028H1505.2V604.06ZM2307.34 1028H2215.5V968.96H2213.86C2202.38 990.28 2185.16 1007.5 2162.2 1020.62C2139.79 1033.19 2116.83 1039.48 2093.32 1039.48C2037.56 1039.48 1997.11 1025.81 1971.96 998.48C1947.36 970.6 1935.06 928.78 1935.06 873.02V604.06H2028.54V864C2028.54 901.173 2035.65 927.413 2049.86 942.72C2064.07 958.027 2084.03 965.68 2109.72 965.68C2129.4 965.68 2145.8 962.673 2158.92 956.66C2172.04 950.647 2182.7 942.72 2190.9 932.88C2199.1 922.493 2204.84 910.193 2208.12 895.98C2211.95 881.767 2213.86 866.46 2213.86 850.06V604.06H2307.34V1028ZM2364.92 604.06H2453.48V663.1H2455.94C2463.05 652.713 2470.7 643.147 2478.9 634.4C2487.1 625.653 2496.12 618.273 2505.96 612.26C2516.35 606.247 2528.1 601.6 2541.22 598.32C2554.34 594.493 2569.37 592.58 2586.32 592.58C2612.01 592.58 2635.79 598.32 2657.66 609.8C2680.07 621.28 2695.93 639.047 2705.22 663.1C2721.07 641.233 2739.39 624.013 2760.16 611.44C2780.93 598.867 2806.9 592.58 2838.06 592.58C2882.89 592.58 2917.6 603.513 2942.2 625.38C2967.35 647.247 2979.92 683.873 2979.92 735.26V1028H2886.44V780.36C2886.44 763.413 2885.89 748.107 2884.8 734.44C2883.71 720.227 2880.43 708.2 2874.96 698.36C2870.04 687.973 2862.39 680.047 2852 674.58C2841.61 669.113 2827.4 666.38 2809.36 666.38C2777.65 666.38 2754.69 676.22 2740.48 695.9C2726.27 715.58 2719.16 743.46 2719.16 779.54V1028H2625.68V755.76C2625.68 726.24 2620.21 704.1 2609.28 689.34C2598.89 674.033 2579.49 666.38 2551.06 666.38C2539.03 666.38 2527.28 668.84 2515.8 673.76C2504.87 678.68 2495.03 685.787 2486.28 695.08C2478.08 704.373 2471.25 715.853 2465.78 729.52C2460.86 743.187 2458.4 758.767 2458.4 776.26V1028H2364.92V604.06ZM3039.87 604.06H3128.43V661.46H3130.07C3143.19 636.86 3161.51 619.367 3185.01 608.98C3208.52 598.047 3233.94 592.58 3261.27 592.58C3294.62 592.58 3323.59 598.593 3348.19 610.62C3373.34 622.1 3394.11 638.227 3410.51 659C3426.91 679.227 3439.21 703.007 3447.41 730.34C3455.61 757.673 3459.71 786.92 3459.71 818.08C3459.71 846.507 3455.89 874.113 3448.23 900.9C3441.13 927.687 3429.92 951.467 3414.61 972.24C3399.85 992.467 3380.99 1008.87 3358.03 1021.44C3335.07 1033.47 3308.01 1039.48 3276.85 1039.48C3263.19 1039.48 3249.52 1038.11 3235.85 1035.38C3222.19 1033.19 3209.07 1029.37 3196.49 1023.9C3183.92 1018.43 3172.17 1011.6 3161.23 1003.4C3150.85 994.653 3142.1 984.54 3134.99 973.06H3133.35V1184.62H3039.87V604.06ZM3366.23 816.44C3366.23 797.307 3363.77 778.72 3358.85 760.68C3353.93 742.64 3346.55 726.787 3336.71 713.12C3326.87 698.907 3314.57 687.7 3299.81 679.5C3285.05 670.753 3268.11 666.38 3248.97 666.38C3209.61 666.38 3179.82 680.047 3159.59 707.38C3139.91 734.713 3130.07 771.067 3130.07 816.44C3130.07 837.76 3132.53 857.713 3137.45 876.3C3142.92 894.34 3150.85 909.92 3161.23 923.04C3171.62 936.16 3183.92 946.547 3198.13 954.2C3212.89 961.853 3229.84 965.68 3248.97 965.68C3270.29 965.68 3288.33 961.307 3303.09 952.56C3317.85 943.813 3329.88 932.607 3339.17 918.94C3349.01 904.727 3355.85 888.873 3359.67 871.38C3364.05 853.34 3366.23 835.027 3366.23 816.44ZM3450.96 604.06H3553.46L3664.16 920.58H3665.8L3773.22 604.06H3870.8L3705.98 1050.96C3698.33 1070.09 3690.68 1088.41 3683.02 1105.9C3675.92 1123.39 3666.9 1138.7 3655.96 1151.82C3645.58 1165.49 3632.46 1176.15 3616.6 1183.8C3600.75 1192 3580.52 1196.1 3555.92 1196.1C3534.06 1196.1 3512.46 1194.46 3491.14 1191.18V1112.46C3498.8 1113.55 3506.18 1114.65 3513.28 1115.74C3520.39 1117.38 3527.77 1118.2 3535.42 1118.2C3546.36 1118.2 3555.38 1116.83 3562.48 1114.1C3569.59 1111.37 3575.33 1107.27 3579.7 1101.8C3584.62 1096.88 3588.72 1090.87 3592 1083.76C3595.28 1076.65 3598.29 1068.45 3601.02 1059.16L3611.68 1026.36L3450.96 604.06ZM3872.9 760.68H4111.52V849.24H3872.9V760.68ZM4116.99 604.06H4187.51V476.96H4280.99V604.06H4365.45V673.76H4280.99V900.08C4280.99 909.92 4281.26 918.393 4281.81 925.5C4282.9 932.607 4284.82 938.62 4287.55 943.54C4290.83 948.46 4295.48 952.287 4301.49 955.02C4307.5 957.207 4315.7 958.3 4326.09 958.3C4332.65 958.3 4339.21 958.3 4345.77 958.3C4352.33 957.753 4358.89 956.66 4365.45 955.02V1027.18C4355.06 1028.27 4344.95 1029.37 4335.11 1030.46C4325.27 1031.55 4315.16 1032.1 4304.77 1032.1C4280.17 1032.1 4260.22 1029.91 4244.91 1025.54C4230.15 1020.62 4218.4 1013.79 4209.65 1005.04C4201.45 995.747 4195.71 984.267 4192.43 970.6C4189.7 956.933 4188.06 941.353 4187.51 923.86V673.76H4116.99V604.06ZM4462.22 891.88C4464.95 919.213 4475.34 938.347 4493.38 949.28C4511.42 960.213 4533.01 965.68 4558.16 965.68C4566.9 965.68 4576.74 965.133 4587.68 964.04C4599.16 962.4 4609.82 959.667 4619.66 955.84C4629.5 952.013 4637.42 946.547 4643.44 939.44C4650 931.787 4653 921.947 4652.46 909.92C4651.91 897.893 4647.54 888.053 4639.34 880.4C4631.14 872.747 4620.48 866.733 4607.36 862.36C4594.78 857.44 4580.3 853.34 4563.9 850.06C4547.5 846.78 4530.82 843.227 4513.88 839.4C4496.38 835.573 4479.44 830.927 4463.04 825.46C4447.18 819.993 4432.7 812.613 4419.58 803.32C4407 794.027 4396.89 782.273 4389.24 768.06C4381.58 753.3 4377.76 735.26 4377.76 713.94C4377.76 690.98 4383.22 671.847 4394.16 656.54C4405.64 640.687 4419.85 628.113 4436.8 618.82C4454.29 608.98 4473.42 602.147 4494.2 598.32C4515.52 594.493 4535.74 592.58 4554.88 592.58C4576.74 592.58 4597.52 595.04 4617.2 599.96C4637.42 604.333 4655.46 611.713 4671.32 622.1C4687.72 632.487 4701.11 646.153 4711.5 663.1C4722.43 679.5 4729.26 699.453 4732 722.96H4634.42C4630.04 700.547 4619.66 685.513 4603.26 677.86C4587.4 670.207 4569.09 666.38 4548.32 666.38C4541.76 666.38 4533.83 666.927 4524.54 668.02C4515.79 669.113 4507.32 671.3 4499.12 674.58C4491.46 677.313 4484.9 681.687 4479.44 687.7C4473.97 693.167 4471.24 700.547 4471.24 709.84C4471.24 721.32 4475.06 730.613 4482.72 737.72C4490.92 744.827 4501.3 750.84 4513.88 755.76C4527 760.133 4541.76 763.96 4558.16 767.24C4574.56 770.52 4591.5 774.073 4609 777.9C4625.94 781.727 4642.62 786.373 4659.02 791.84C4675.42 797.307 4689.9 804.687 4702.48 813.98C4715.6 823.273 4725.98 835.027 4733.64 849.24C4741.84 863.453 4745.94 880.947 4745.94 901.72C4745.94 926.867 4740.2 948.187 4728.72 965.68C4717.24 983.173 4702.2 997.387 4683.62 1008.32C4665.58 1019.25 4645.35 1027.18 4622.94 1032.1C4600.52 1037.02 4578.38 1039.48 4556.52 1039.48C4529.73 1039.48 4504.86 1036.47 4481.9 1030.46C4459.48 1024.45 4439.8 1015.43 4422.86 1003.4C4406.46 990.827 4393.34 975.52 4383.5 957.48C4374.2 938.893 4369.28 917.027 4368.74 891.88H4462.22Z" fill="white"/>
</svg>
